<svg width="38" height="28" viewBox="0 0 38 28" fill="none" xmlns="http://www.w3.org/2000/svg">
<path fill-rule="evenodd" clip-rule="evenodd" d="M2.70835 0.583344C2.20002 0.583344 1.71251 0.785278 1.35307 1.14472C0.993621 1.50417 0.791687 1.99168 0.791687 2.50001C0.791687 3.00834 0.993621 3.49585 1.35307 3.8553C1.71251 4.21474 2.20002 4.41668 2.70835 4.41668H35.2917C35.8 4.41668 36.2875 4.21474 36.647 3.8553C37.0064 3.49585 37.2084 3.00834 37.2084 2.50001C37.2084 1.99168 37.0064 1.50417 36.647 1.14472C36.2875 0.785278 35.8 0.583344 35.2917 0.583344H2.70835ZM0.791687 14C0.791687 13.4917 0.993621 13.0042 1.35307 12.6447C1.71251 12.2853 2.20002 12.0833 2.70835 12.0833H35.2917C35.8 12.0833 36.2875 12.2853 36.647 12.6447C37.0064 13.0042 37.2084 13.4917 37.2084 14C37.2084 14.5083 37.0064 14.9959 36.647 15.3553C36.2875 15.7147 35.8 15.9167 35.2917 15.9167H2.70835C2.20002 15.9167 1.71251 15.7147 1.35307 15.3553C0.993621 14.9959 0.791687 14.5083 0.791687 14ZM0.791687 25.5019C0.791687 24.9936 0.993621 24.5061 1.35307 24.1466C1.71251 23.7872 2.20002 23.5853 2.70835 23.5853H35.2917C35.8 23.5853 36.2875 23.7872 36.647 24.1466C37.0064 24.5061 37.2084 24.9936 37.2084 25.5019C37.2084 26.0103 37.0064 26.4978 36.647 26.8572C36.2875 27.2167 35.8 27.4186 35.2917 27.4186H2.70835C2.20002 27.4186 1.71251 27.2167 1.35307 26.8572C0.993621 26.4978 0.791687 26.0103 0.791687 25.5019Z" fill="white"/>
</svg>
