<svg width="75" height="72" viewBox="0 0 75 72" fill="none" xmlns="http://www.w3.org/2000/svg">
<g id="Group 41013">
<path id="Ellipse 4" d="M68.2852 31.9484C71.3475 48.7932 60.0665 64.237 43.0885 66.4432C26.1104 68.6495 9.86445 56.7826 6.80216 39.9379C3.73988 23.0931 15.0209 7.64928 31.9989 5.44305C48.977 3.23683 65.223 15.1037 68.2852 31.9484Z" fill="black" stroke="white" stroke-width="2"/>
<path id="Arrow 1" d="M25.9215 48.0096C25.4622 48.539 25.5727 49.2676 26.1683 49.637C26.764 50.0064 27.6191 49.8767 28.0785 49.3473L25.9215 48.0096ZM49.5808 24.0049C49.4845 23.3694 48.8016 22.9459 48.0557 23.059L35.8998 24.9025C35.1539 25.0156 34.6273 25.6225 34.7237 26.2581C34.82 26.8936 35.5029 27.3171 36.2488 27.204L47.054 25.5653L48.4502 34.7711C48.5465 35.4066 49.2294 35.8301 49.9753 35.7169C50.7213 35.6038 51.2478 34.9969 51.1515 34.3614L49.5808 24.0049ZM28.0785 49.3473L49.3086 24.8786L47.1517 23.5409L25.9215 48.0096L28.0785 49.3473Z" fill="white"/>
</g>
</svg>
