<svg width="24" height="30" viewBox="0 0 24 30" fill="none" xmlns="http://www.w3.org/2000/svg">
<path d="M12.0026 14.7979C12.7489 14.7979 13.3869 14.5321 13.9166 14.0006C14.4466 13.4691 14.7116 12.8302 14.7116 12.084C14.7116 11.3378 14.4459 10.6996 13.9144 10.1696C13.3829 9.63988 12.7439 9.375 11.9974 9.375C11.2511 9.375 10.6131 9.64075 10.0834 10.1723C9.55338 10.7038 9.28838 11.3428 9.28838 12.0893C9.28838 12.8355 9.55413 13.4735 10.0856 14.0033C10.6171 14.533 11.2561 14.7979 12.0026 14.7979ZM12 26.2703C14.9345 23.6432 17.1801 21.1235 18.7369 18.711C20.2936 16.2985 21.072 14.1855 21.072 12.372C21.072 9.6375 20.2033 7.3895 18.4658 5.628C16.7283 3.8665 14.573 2.98575 12 2.98575C9.42701 2.98575 7.27176 3.8665 5.53426 5.628C3.79676 7.3895 2.92801 9.6375 2.92801 12.372C2.92801 14.1855 3.70638 16.2985 5.26313 18.711C6.81988 21.1235 9.06551 23.6432 12 26.2703ZM12 29.2643C8.22501 25.9933 5.39426 22.9491 3.50776 20.1319C1.62126 17.3144 0.678009 14.7277 0.678009 12.372C0.678009 8.9105 1.79763 6.10812 4.03688 3.96487C6.27638 1.82162 8.93076 0.75 12 0.75C15.0693 0.75 17.7236 1.82162 19.9631 3.96487C22.2024 6.10812 23.322 8.9105 23.322 12.372C23.322 14.7277 22.3788 17.3144 20.4923 20.1319C18.6058 22.9491 15.775 25.9933 12 29.2643Z" fill="#00B4DD"/>
</svg>
