<svg width="30" height="24" viewBox="0 0 30 24" fill="none" xmlns="http://www.w3.org/2000/svg">
<path d="M3.46163 23.25C2.70387 23.25 2.0625 22.9875 1.5375 22.4625C1.0125 21.9375 0.75 21.2961 0.75 20.5384V3.46163C0.75 2.70387 1.0125 2.0625 1.5375 1.5375C2.0625 1.0125 2.70387 0.75 3.46163 0.75H26.5384C27.2961 0.75 27.9375 1.0125 28.4625 1.5375C28.9875 2.0625 29.25 2.70387 29.25 3.46163V20.5384C29.25 21.2961 28.9875 21.9375 28.4625 22.4625C27.9375 22.9875 27.2961 23.25 26.5384 23.25H3.46163ZM15 12.8366L3 5.16338V20.5384C3 20.6731 3.04325 20.7838 3.12975 20.8703C3.21625 20.9568 3.32687 21 3.46163 21H26.5384C26.6731 21 26.7838 20.9568 26.8703 20.8703C26.9568 20.7838 27 20.6731 27 20.5384V5.16338L15 12.8366ZM15 10.5L26.7694 3H3.23062L15 10.5ZM3 5.16338V3V20.5384C3 20.6731 3.04325 20.7838 3.12975 20.8703C3.21625 20.9568 3.32687 21 3.46163 21H3V5.16338Z" fill="#00B4DD"/>
</svg>
