<svg width="28" height="28" viewBox="0 0 28 28" fill="none" xmlns="http://www.w3.org/2000/svg">
<path d="M25.5512 27.3334C22.7415 27.3334 19.8612 26.6299 16.9104 25.223C13.9596 23.8158 11.218 21.8408 8.68582 19.298C6.15388 16.7555 4.18429 14.0141 2.77707 11.0738C1.37013 8.13355 0.666656 5.25855 0.666656 2.44883C0.666656 1.93967 0.833323 1.51536 1.16666 1.17591C1.49999 0.836469 1.91666 0.666748 2.41666 0.666748H6.53832C6.99138 0.666748 7.38666 0.809388 7.72416 1.09467C8.06193 1.37994 8.29068 1.74591 8.41041 2.19258L9.23707 6.16675C9.31402 6.63258 9.30013 7.03966 9.19541 7.388C9.09068 7.73633 8.90582 8.02161 8.64082 8.24383L4.98416 11.6538C5.66777 12.8952 6.4236 14.0486 7.25166 15.1138C8.07971 16.1791 8.96277 17.1881 9.90082 18.1409C10.8686 19.109 11.9103 20.0091 13.0258 20.8413C14.1411 21.6736 15.3654 22.4594 16.6987 23.1988L20.2629 19.5705C20.5343 19.2777 20.8393 19.0849 21.1779 18.9922C21.5165 18.8991 21.891 18.8804 22.3012 18.9359L25.8075 19.6538C26.2605 19.7649 26.6282 19.9931 26.9104 20.3384C27.1923 20.6834 27.3333 21.0792 27.3333 21.5259V25.5834C27.3333 26.0834 27.1636 26.5001 26.8242 26.8334C26.4847 27.1667 26.0604 27.3334 25.5512 27.3334ZM4.20207 10.0897L7.40082 7.14758C7.50749 7.06202 7.57693 6.94453 7.60916 6.79508C7.6411 6.64536 7.63568 6.50647 7.59291 6.37842L6.85249 2.84633C6.80971 2.67522 6.73499 2.54703 6.62832 2.46175C6.52138 2.37619 6.38249 2.33341 6.21166 2.33341H2.79166C2.66332 2.33341 2.55652 2.37619 2.47124 2.46175C2.38568 2.54703 2.34291 2.65383 2.34291 2.78217C2.37485 3.92105 2.55332 5.11008 2.87832 6.34925C3.20305 7.58869 3.6443 8.8355 4.20207 10.0897ZM18.2854 23.9809C19.4112 24.5387 20.6115 24.9511 21.8862 25.218C23.1607 25.4852 24.2712 25.6284 25.2179 25.6476C25.3462 25.6476 25.453 25.6048 25.5383 25.5192C25.6239 25.4337 25.6667 25.3269 25.6667 25.1988V21.8526C25.6667 21.6817 25.6239 21.5429 25.5383 21.4359C25.453 21.3292 25.3249 21.2545 25.1537 21.2117L22.0704 20.5801C21.9424 20.5373 21.8303 20.532 21.7342 20.5642C21.6378 20.5962 21.5362 20.6656 21.4296 20.7726L18.2854 23.9809Z" fill="#00B4DD"/>
</svg>
