<svg width="58" height="58" viewBox="0 0 58 58" fill="none" xmlns="http://www.w3.org/2000/svg">
<path d="M20.8848 0.728516H36.0605L37.877 0.757812L38.3164 0.816406L38.8145 0.962891L39.3125 1.19727L39.8105 1.54883L40.1914 1.90039L40.4844 2.28125L40.7188 2.66211L40.9238 3.16016L41.041 3.57031L41.0996 4.12695V8.60938L45.875 8.58008L45.9336 6.4707L46.0508 5.91406L46.2559 5.44531L46.4609 5.09375L46.7246 4.77148L46.9883 4.50781L47.4277 4.21484L47.7793 4.03906L48.248 3.89258L48.6289 3.83398H49.2148L49.625 3.89258L50.1523 4.06836L50.5918 4.30273L50.9727 4.5957L51.2656 4.88867L51.5293 5.26953L51.7637 5.73828L51.9102 6.23633L51.9395 6.44141L51.9688 8.14062V8.58008L54.0488 8.60938L54.6055 8.69727L55.1621 8.90234L55.6016 9.13672L55.9824 9.42969L56.2754 9.69336L56.5977 10.0742L56.8906 10.5723L57.125 11.1582L57.2129 11.5684L57.2422 11.832V25.2793L57.1543 25.543L57.0371 25.7188L56.832 25.8945L56.5977 25.9824L56.4805 26.0117H56.2168L55.9824 25.9531L55.7773 25.8359L55.5723 25.6016L55.4551 25.2793L55.4258 24.459V18.0137L55.0156 18.2773L54.459 18.6289L52.3496 19.9473L51.7051 20.3574L50.9434 20.8262L49.2734 21.8809L47.8672 22.7598L47.3398 23.082L46.7246 23.4336L45.875 23.8438L45.0254 24.166L44.3516 24.3711L43.5898 24.5469L42.916 24.6641L42.0957 24.752L41.4805 24.7812H34.3027V26.8906L34.2441 27.5352L34.0977 28.1504L33.8926 28.7363L33.6582 29.2051L33.3652 29.6738L33.043 30.084L32.8672 30.2891H32.8086L32.75 30.4062L32.3398 30.7578L31.9297 31.0508L31.4609 31.3145L30.9629 31.5488L30.4355 31.7246L29.7617 31.8711L29.1758 31.9297H28.707L28.1504 31.8711L27.5352 31.7246L27.0371 31.5488L26.5098 31.3145L26.041 31.0215L25.6602 30.7285L25.3672 30.4648L24.957 30.0547L24.6055 29.5859L24.3711 29.2051L24.1367 28.7656L23.873 28.0332L23.7266 27.3008L23.6973 27.0371L23.668 26.1582V24.7812H16.5195L15.8164 24.752L14.8496 24.6348L14.0879 24.4883L13.1504 24.2246L12.418 23.9609L11.5684 23.5801L10.9531 23.2578L10.4551 22.9648L9.75195 22.5254L9.19531 22.1738L8.49219 21.7344L7.93555 21.3828L7.17383 20.9141L6.5 20.4746L5.91406 20.123L5.35742 19.7715L3.95117 18.8926L3.39453 18.541L3.01367 18.3066L2.57422 18.043V49.2441L2.63281 49.5371L2.86719 50.0059L3.10156 50.2988L3.39453 50.5039L3.7168 50.6504L4.06836 50.7383L30.377 50.7676L30.4062 50.1523L30.5234 49.3613L30.6699 48.7754L30.875 48.1602L31.1973 47.457L31.4609 46.9883L31.7832 46.5195L32.0469 46.168L32.3691 45.8164L32.5742 45.582H32.6328L32.6621 45.4941L32.8965 45.2891L33.1602 45.0547L33.6875 44.6738L34.0684 44.4395L34.6543 44.1172L35.3867 43.8242L36.0898 43.6191L36.7344 43.502L37.291 43.4141L37.7012 42.9746L37.7305 42.916H37.7891L37.8477 42.7988L38.0527 42.5645L38.1113 42.4766L38.082 42.3594L37.6719 41.9785L37.4668 41.7441L37.1445 41.3633L36.8223 40.8945L36.5586 40.4551L36.3242 39.9863L36.1191 39.4883L35.9434 38.873L35.7383 37.8184L35.2988 35.3281L35.0352 33.7754L34.9766 33.2188V32.3984L35.0645 31.6953L35.2402 30.9629L35.4746 30.3477L35.7676 29.791L36.002 29.4395L36.3242 29.0293L36.8516 28.502L37.2324 28.209L37.7598 27.8867L38.4336 27.5645L39.0195 27.3887L39.6055 27.2715L40.1914 27.2129H44.1172L44.7617 27.2715L45.3184 27.3887L45.8457 27.5645L46.373 27.7988L46.8418 28.0625L47.3398 28.4141L47.7207 28.7656L47.8672 28.8828L48.0723 29.1172L48.3945 29.5273L48.6582 29.9375L48.9219 30.4355L49.1562 31.0508L49.332 31.7832L49.3906 32.252V33.0723L49.332 33.5996L48.6875 37.4961L48.5117 38.5215L48.3359 39.2539L48.1602 39.7812L47.8965 40.3672L47.6914 40.748L47.457 41.0996L47.2227 41.4219L46.8711 41.832L46.5195 42.1836L46.2559 42.3887L46.3145 42.5352L46.5195 42.8574L46.8418 43.209L47.0762 43.4141L48.1309 43.5898L48.6875 43.7363L49.2148 43.9121L49.8008 44.1758L50.3574 44.4688L50.9141 44.8496L51.3828 45.2305L51.6758 45.4941L52.0859 45.9043L52.3496 46.2266L52.6426 46.6074L52.9941 47.1641L53.3164 47.7793L53.5508 48.3652L53.7559 49.0098L53.9023 49.7129L53.9609 50.1523L53.9902 50.6797L54.5176 50.4453L54.8398 50.2109L55.0449 50.0059L55.0742 49.9473H55.1328L55.1914 49.8008L55.3379 49.4785L55.4258 49.0391V32.5742L55.4551 30.2012L55.5723 29.9082L55.7773 29.6738L55.9824 29.5566L56.2754 29.498L56.5977 29.5273L56.8613 29.6445L57.0664 29.8203L57.2129 30.1133L57.2422 30.2305V49.2441L57.1836 49.6543L57.0664 50.0938L56.8613 50.5918L56.5977 51.0312L56.334 51.3535L56.0117 51.6758L55.5723 51.998L55.1035 52.2324L54.5469 52.4082L53.9902 52.4961V54.5469L53.9609 55.0156L53.8438 55.4844L53.668 55.8945L53.4629 56.2168L53.1113 56.5977L52.7012 56.8906L52.2324 57.0957L51.7637 57.2129L51.4414 57.2422H32.7793L32.3398 57.1836L31.959 57.0664L31.4902 56.832L31.1973 56.5977L30.875 56.2754L30.6113 55.8652L30.4355 55.4844L30.3184 54.9863L30.2891 54.5469V52.4668L29.6738 52.4961H27.7988L3.92188 52.4668L3.39453 52.3789L2.89648 52.2031L2.33984 51.9102L1.87109 51.5293L1.60742 51.2656L1.28516 50.8262L0.992188 50.2695L0.845703 49.8301L0.757812 49.3027L0.728516 48.541V12.3594L0.757812 11.7441L0.845703 11.2754L1.02148 10.748L1.28516 10.25L1.51953 9.92773L1.7832 9.63477L1.98828 9.42969L2.39844 9.13672L2.80859 8.90234L3.18945 8.75586L3.6582 8.63867L4.41992 8.58008H6.00195L6.03125 6.64648L6.11914 6.08984L6.26562 5.65039L6.5 5.21094L6.79297 4.83008L7.14453 4.47852L7.58398 4.18555L8.05273 3.98047L8.55078 3.86328L8.75586 3.83398H9.3418L9.83984 3.92188L10.2793 4.06836L10.748 4.33203L11.1582 4.6543L11.4512 4.97656L11.7148 5.38672L11.9199 5.85547L12.0371 6.35352L12.0664 6.55859V8.60938L16.8418 8.58008L16.8711 5.85547L16.9004 3.92188L16.9883 3.45312L17.1348 2.98438L17.3691 2.51562L17.5742 2.19336L17.8379 1.87109L18.1016 1.60742L18.4531 1.34375L18.8926 1.08008L19.332 0.904297L19.8301 0.787109L20.0645 0.757812L20.8848 0.728516ZM20.1523 2.54492L19.7422 2.66211L19.4492 2.83789L19.1562 3.10156L18.9805 3.30664L18.7754 3.7168L18.6875 4.09766V8.60938H39.2832L39.3125 8.58008V4.27344L39.2539 3.83398L39.1074 3.45312L38.873 3.13086L38.6387 2.89648L38.2285 2.66211L37.9648 2.57422L37.7891 2.54492H20.1523ZM8.96094 5.62109L8.55078 5.70898L8.28711 5.88477L8.14062 6.00195L7.93555 6.32422L7.84766 6.61719L7.81836 8.46289L7.84766 8.58008L8.05273 8.60938H10.25L10.2793 8.58008V6.73438L10.1914 6.35352L10.0156 6.06055L9.81055 5.85547L9.45898 5.67969L9.16602 5.62109H8.96094ZM48.8047 5.62109L48.4531 5.70898L48.1895 5.85547L47.9551 6.08984L47.7793 6.44141L47.6621 6.85156L47.6328 6.88086V8.60938H50.0645L50.1523 8.58008V6.64648L50.0352 6.26562L49.8301 5.97266L49.5957 5.79688L49.3613 5.67969L49.0391 5.62109H48.8047ZM4.03906 10.3965L3.59961 10.5137L3.30664 10.6895L3.01367 10.9531L2.83789 11.1582L2.63281 11.5391L2.54492 11.9492V15.8457L2.80859 16.0215L3.51172 16.4609L4.06836 16.8125L5.47461 17.6914L6.11914 18.1016L7.52539 18.9805L8.63867 19.6836L9.40039 20.1523L10.5137 20.8555L11.4512 21.4414L11.8906 21.7051L12.5938 22.0859L13.3555 22.4082L14.0879 22.6426L14.8496 22.8184L15.4062 22.9062L16.0508 22.9648L17.9258 22.9941H23.6387L23.668 22.9648L23.7266 20.9434L23.8145 20.3574L23.9609 19.8008L24.1367 19.332L24.3711 18.834L24.6348 18.4238L24.9863 17.9551L25.3965 17.5449L25.7188 17.252L26.2168 16.9004L26.627 16.666L27.1836 16.4316L27.7988 16.2559L28.2383 16.168L28.4727 16.1387H29.498L30.1133 16.2266L30.7285 16.4023L31.3438 16.666L31.8125 16.9297L32.3105 17.2812L32.6914 17.6328L33.0137 17.9551L33.3652 18.4238L33.5996 18.8047L33.834 19.2734L34.0684 19.8887L34.2148 20.5332L34.2734 21.1777L34.3027 22.9941H41.1289L41.9785 22.9648L42.7695 22.877L43.6191 22.7012L44.4688 22.4375L45.2012 22.1445L45.9922 21.7637L46.6367 21.3828L47.1934 21.0312L47.8965 20.5918L48.4531 20.2402L49.0684 19.8594L49.625 19.5078L50.3281 19.0684L50.8848 18.7168L51.5879 18.2773L52.1445 17.9258L53.5508 17.0469L54.1074 16.6953L54.7227 16.3145L55.4258 15.875L55.4551 15.8457V12.0371L55.3672 11.5684L55.1621 11.1582L54.8984 10.8652L54.6934 10.6895L54.2246 10.4551L53.9316 10.3965H4.03906ZM28.6777 17.8965L28.1211 17.9844L27.623 18.1602L27.2129 18.3652L26.832 18.6289L26.3926 19.0391L26.0703 19.4492L25.8066 19.918L25.6016 20.4453L25.4844 21.0898V26.9199L25.5723 27.4473L25.748 27.9746L25.9824 28.4434L26.2754 28.8535L26.4805 29.0879H26.5391V29.1465L26.8613 29.4102L27.1543 29.6152L27.5938 29.8496L28.1211 30.0254L28.6191 30.1133H29.3809L29.8789 30.0254L30.377 29.8496L30.9336 29.5566L31.3438 29.2344L31.6953 28.8828L31.9297 28.5605L32.1641 28.1504L32.3398 27.7109L32.457 27.2422L32.4863 27.0957L32.5156 26.6855V21.3535L32.457 20.7383L32.3105 20.2109L32.1055 19.7422L31.8125 19.2734L31.4609 18.8926L31.1387 18.5996L30.6699 18.3066L30.2305 18.1016L29.7324 17.9551L29.293 17.8965H28.6777ZM40.4258 29L39.7812 29.0586L39.2832 29.1758L38.8438 29.3516L38.375 29.6152L37.9941 29.9082L37.6719 30.2305L37.4082 30.582L37.2031 30.9336L37.0273 31.4023L36.9395 31.7539L36.9102 31.9883V32.75L37.0273 33.4531L37.1152 34.127L37.1445 34.1855L37.4082 34.2441L37.8184 34.2734H38.3457L38.9609 34.1855L39.4883 34.0098L39.9277 33.7754L40.3086 33.4824L40.543 33.2773L40.8066 32.9551L41.0703 32.6035L41.3633 32.1055L41.6562 31.4316L41.8027 31.0508L41.9785 30.8164L42.2715 30.6699L42.5938 30.6406L42.8574 30.6992L43.1211 30.875L43.2969 31.1387L43.5898 31.666L43.9121 32.0469L44.2344 32.3691L44.6445 32.6621L45.0547 32.8672L45.377 32.9551H45.8457L46.3145 32.8379L46.7832 32.6035L47.1055 32.3984L47.5156 32.0762L47.6035 31.959L47.457 31.4609L47.252 30.9922L46.959 30.5234L46.6074 30.1133L46.3145 29.8496L45.9336 29.5859L45.6406 29.4102L45.0547 29.1758L44.5859 29.0586L43.9414 29H40.4258ZM42.5645 33.4531L42.2715 33.8926L41.9785 34.2734L41.7148 34.5664V34.625H41.6562V34.6836H41.5977V34.7422L41.4805 34.8008L41.1875 35.0645L40.7773 35.3574L40.3086 35.6211L39.7812 35.8555L39.0488 36.0605L38.4629 36.1484L38.0527 36.1777H37.2031L37.4375 37.4961L37.6133 38.4336L37.7891 39.0488L38.0234 39.5762L38.3164 40.0449L38.6094 40.4258L38.7852 40.6309H38.8438V40.6895L39.0781 40.8945L39.4883 41.2168L39.8691 41.4512L40.3379 41.6855L40.8359 41.8613L41.3047 41.9785L41.7734 42.0371H42.5352L43.2676 41.9199L43.7363 41.7734L44.3516 41.5098L44.8789 41.1875L45.2012 40.9238L45.4941 40.6602L45.7871 40.3379L46.0215 40.0156L46.2852 39.5469L46.4902 39.0781L46.666 38.4922L46.9004 37.1152L47.1348 35.709L47.3105 34.625L47.3398 34.4199L46.5488 34.7129L46.0215 34.8301L45.7871 34.8594H45.2891L44.8789 34.8008L44.4688 34.6836L43.9707 34.4785L43.5605 34.2441L43.0918 33.8926L42.6523 33.4824L42.5645 33.4531ZM39.6348 43.4141L39.5176 43.5898L39.2246 43.9707L38.9609 44.2637L38.9316 44.3809L41.6855 47.1348L41.7148 47.1934H41.7734V47.252L42.0078 47.457L42.125 47.5742L42.2422 47.5156L42.5352 47.2227V47.1641L42.6523 47.1055V47.0469L42.7695 46.9883L44.6445 45.1133V45.0547L44.7617 44.9961V44.9375L44.8789 44.8789V44.8203L44.9961 44.7617V44.7031L45.1133 44.6445L45.377 44.3809L45.3184 44.2637L44.9961 43.8828L44.6445 43.4141L44.4688 43.4434L43.8535 43.6484L43.2383 43.7949L42.5645 43.8828H41.7148L41.0117 43.7949L40.3379 43.6191L39.752 43.4141H39.6348ZM36.9688 45.1719L36.2656 45.3184L35.6504 45.5234L35.0938 45.7871L34.7129 46.0215L34.3027 46.3145L34.0098 46.5781L33.7754 46.7832L33.5703 46.9883L33.248 47.3984L32.9551 47.8086L32.6328 48.3945L32.3984 48.9805L32.2227 49.5957L32.1348 50.0938L32.1055 50.4746V54.7812L32.2227 55.1035L32.4277 55.3086L32.6914 55.4258L32.8672 55.4551H35.2402L35.2695 51.5879L35.3867 51.2656L35.5332 51.0898L35.7676 50.9434L36.0605 50.8848L36.4121 50.9141L36.7051 51.0605L36.9102 51.2949L36.998 51.5L37.0273 51.793L37.0566 55.4551H47.0469L47.0762 55.25L47.1055 51.5293L47.2227 51.2656L47.4277 51.0312L47.6914 50.9141L48.0723 50.8848L48.3945 50.9727L48.5703 51.0898L48.7461 51.3242L48.834 51.5586L48.8633 55.4551H51.207L51.5 55.3965L51.7344 55.25L51.9102 55.0449L51.998 54.7812V50.3281L51.8809 49.5371L51.6758 48.834L51.3828 48.1602L51.0898 47.6621L50.7969 47.252L50.4746 46.9004L50.416 46.8125H50.3574L50.2988 46.6953L50.0645 46.4902L49.6543 46.168L49.2441 45.9043L48.6289 45.582L48.0723 45.377L47.3398 45.2012L46.8711 45.1719L46.666 45.4062L45.9043 46.168V46.2266L45.7871 46.2852V46.3438L45.6699 46.4023L45.4648 46.6367L44.4688 47.6328V47.6914H44.4102V47.75H44.3516V47.8086H44.293V47.8672H44.2344L44.0293 48.1016L43.0332 49.0977V49.1562H42.9746L42.7695 49.3906L42.5059 49.5957L42.3301 49.6836L42.1836 49.7129H41.9199L41.5977 49.5957L41.3047 49.332L40.6309 48.6582L40.5723 48.5703H40.5137L40.4551 48.4531L39.1074 47.1055L39.0781 47.0469H39.0195L38.9609 46.9297L38.1113 46.0801L37.9062 45.8457L37.2324 45.1719H36.9688Z" fill="#00B4DD"/>
</svg>
